<svg width="256" height="256" viewBox="0 0 256 256" fill="none" xmlns="http://www.w3.org/2000/svg">
  <rect width="256" height="256" rx="48" fill="white"/>
  <path d="M90 46C94.4183 46 98 49.5817 98 54V96C98 98.3642 96.9549 100.608 95.1458 102.127L63.1458 129.127C57.9139 133.538 49.9907 132.236 46.4136 126.396L23.4136 88.3963C19.931 82.6458 21.3594 75.1798 26.7476 71.1129L82.7476 48.1129C84.9477 46.6759 87.4287 46 90 46Z" fill="#1E1C20"/>
  <path d="M166 46C168.571 46 171.052 46.6759 173.252 48.1129L229.252 71.1129C234.641 75.1798 236.069 82.6458 232.586 88.3963L209.586 126.396C206.009 132.236 198.086 133.538 192.854 129.127L160.854 102.127C159.045 100.608 158 98.3642 158 96V54C158 49.5817 161.582 46 166 46Z" fill="#1E1C20"/>
  <path d="M91.7106 120C95.1839 120 98 122.816 98 126.289V168C98 172.418 94.4183 176 90 176H57.775C55.9711 176 54.2062 176.512 52.6831 177.476L28.1738 193.015C22.8622 196.38 16 192.563 16 186.275V171.983C16 167.808 18.0852 163.91 21.5542 161.593L87.5542 121.593C88.8004 120.662 90.2378 120 91.7106 120Z" fill="#1E1C20"/>
  <path d="M164.289 120C165.762 120 167.2 120.662 168.446 121.593L234.446 161.593C237.915 163.91 240 167.808 240 171.983V186.275C240 192.563 233.138 196.38 227.826 193.015L203.317 177.476C201.794 176.512 200.029 176 198.225 176H166C161.582 176 158 172.418 158 168V126.289C158 122.816 160.816 120 164.289 120Z" fill="#1E1C20"/>
  <path d="M112 152C112 147.582 115.582 144 120 144H136C140.418 144 144 147.582 144 152V192C144 196.418 140.418 200 136 200H120C115.582 200 112 196.418 112 192V152Z" fill="#1E1C20"/>
</svg>
